<svg xmlns="http://www.w3.org/2000/svg" id="Layer_2" data-name="Layer 2" viewBox="0 0 80.79 64.46"><defs><style>.cls-1{fill:#e1b157}.cls-2{fill:#fff}.cls-3{fill:#f1d3a0}.cls-4{fill:#9c2b07}.cls-5{fill:#e0a43e}.cls-6{fill:#dd9521}.cls-8{fill:#edc582}.cls-9{fill:#e09c2d}.cls-10{fill:#d58f1f}.cls-12{fill:#ebbd71}</style></defs><g id="Layer_1-2" data-name="Layer 1"><path d="M2.99 41.89c-.5 1.03-.87 2.12-1.08 3.23-.49 2.55-.14 5.26 1.24 7.52 1.59 2.61 4.39 4.42 7.27 5.86 11.24 5.6 24.63 6.56 37.42 5.68 8.88-.61 18.04-2.18 25.24-6.94 2.36-1.56 4.51-3.52 5.63-5.97 1.23-2.7 1.08-5.82-.06-8.55-.6-1.44-1.46-2.79-2.53-3.98L2.99 41.89Z" class="cls-3"/><path d="M13.82 41.42c-.9 1.55-1.37 3.13-1.39 4.73.03 7.88 10.93 15.04 27.92 18.31-10.41.05-20.87-1.45-29.93-5.96-2.88-1.44-5.68-3.25-7.27-5.86-1.38-2.26-1.72-4.97-1.24-7.52.21-1.11.57-2.2 1.08-3.23l10.83-.46Z" class="cls-8"/><path d="M2.5 43.88c0 8.7 17.06 15.75 38.11 15.75s38.11-7.05 38.11-15.75-17.06-15.75-38.11-15.75S2.5 35.18 2.5 43.88Z" class="cls-9"/><path d="M9.3 41.62c-.83 1.48-1.26 3-1.28 4.53.02 7.79 10.68 14.88 27.38 18.2-8.74-.4-17.35-2.06-24.97-5.86-2.88-1.44-5.68-3.25-7.27-5.86-1.38-2.26-1.72-4.97-1.24-7.52.21-1.11.57-2.2 1.08-3.23l6.3-.27Z" class="cls-12"/><path d="M38.7 28.17c-16.09 3.42-26.25 10.37-26.27 17.98.02 3.93 2.75 7.77 7.87 11.05C9.23 54.32 2.51 49.29 2.5 43.88c.03-8.39 15.94-15.29 36.2-15.71Z" class="cls-6"/><path d="M32.84 28.47C17.54 32.01 8.02 38.79 8.02 46.15c.01 2.83 1.43 5.62 4.18 8.2-6.23-2.88-9.67-6.61-9.69-10.47 0-7.46 12.67-13.89 30.34-15.42Z" class="cls-10"/><path d="M45.93 57.14c6.74-.48 13.4-1.93 19.83-3.99 1.79-.57 3.57-1.2 5.21-2.11s3.14-2.13 4.16-3.71c.73-1.12 1.2-2.43 1.3-3.76.11-1.34-.14-2.71-.77-3.89-.72-1.35-1.88-2.43-3.18-3.24-1.3-.81-2.73-1.39-4.16-1.93-2.51-.96-5.06-1.85-7.65-2.59-4.87-1.37-9.92-2.17-14.98-2.15-4.68.02-9.37.74-13.8 2.26-3.57 1.23-6.96 2.97-10.24 4.85-1.29.74-2.58 1.51-3.71 2.48s-2.11 2.16-2.65 3.55c-.64 1.64-.61 3.52 0 5.17.73 1.98 2.27 3.58 4.05 4.71 1.78 1.13 3.8 1.83 5.82 2.4 6.72 1.88 13.78 2.44 20.74 1.95Z" class="cls-5"/><path d="M60.69 48.79c1.57.2 3.16.23 4.73.08 1-.1 1.99-.26 2.94-.59.95-.33 1.84-.83 2.55-1.54.73-.74 1.25-1.69 1.47-2.71.21-1.02.13-2.11-.25-3.08-.51-1.29-1.5-2.35-2.65-3.14s-2.44-1.32-3.75-1.81c-3.13-1.17-6.34-2.09-9.6-2.82-4.36-.97-8.8-1.59-13.26-1.68-2.7-.05-5.5.12-7.93 1.3-1.07.52-2.06 1.24-2.75 2.21-.46.65-.77 1.42-.89 2.21-.11.79-.02 1.62.28 2.36.39.97 1.12 1.77 1.96 2.38.84.61 1.8 1.05 2.76 1.44 6.34 2.57 13.23 3.38 19.97 4.57 1.48.26 2.95.54 4.42.84Z" class="cls-1"/><path d="M1.95 32.84c-.5 1.03-.86 2.11-1.08 3.22-.49 2.55-.14 5.26 1.24 7.52 1.59 2.61 4.39 4.43 7.27 5.86 11.24 5.6 24.63 6.56 37.42 5.68 8.88-.61 18.05-2.18 25.24-6.94 2.36-1.56 4.52-3.52 5.63-5.97 1.23-2.7 1.08-5.82-.06-8.55-.6-1.44-1.46-2.79-2.53-3.98L1.95 32.84Z" class="cls-3"/><path d="M12.78 32.37c-.9 1.55-1.37 3.13-1.38 4.73.02 7.88 10.93 15.04 27.92 18.31-10.41.05-20.87-1.45-29.93-5.96-2.88-1.43-5.68-3.25-7.27-5.86C.74 41.33.39 38.61.88 36.07c.21-1.11.57-2.2 1.08-3.22l10.83-.47Z" class="cls-8"/><path d="M1.46 34.83c0 8.7 17.06 15.75 38.11 15.75s38.11-7.05 38.11-15.75-17.06-15.75-38.11-15.75S1.46 26.13 1.46 34.83Z" class="cls-9"/><path d="M8.25 32.56c-.83 1.48-1.26 3-1.28 4.53.02 7.79 10.68 14.88 27.38 18.21-8.74-.41-17.35-2.06-24.97-5.86-2.88-1.43-5.68-3.25-7.27-5.86C.73 41.32.38 38.6.87 36.06c.21-1.11.57-2.2 1.08-3.22l6.3-.27Z" class="cls-12"/><path d="M37.66 19.12C21.57 22.54 11.41 29.49 11.39 37.1c.01 3.93 2.75 7.77 7.87 11.06-11.07-2.88-17.8-7.91-17.8-13.32.02-8.38 15.94-15.29 36.2-15.71Z" class="cls-6"/><path d="M31.8 19.41C16.49 22.95 6.97 29.72 6.97 37.09c.02 2.83 1.44 5.62 4.18 8.2-6.22-2.88-9.67-6.61-9.68-10.47 0-7.46 12.67-13.9 30.34-15.42Z" class="cls-10"/><path d="M44.89 48.09c6.74-.48 13.39-1.93 19.83-3.99 1.79-.57 3.57-1.2 5.21-2.11 1.64-.91 3.14-2.13 4.16-3.71.73-1.12 1.2-2.42 1.31-3.76.11-1.34-.15-2.71-.77-3.89-.71-1.35-1.88-2.43-3.17-3.24-1.3-.82-2.73-1.39-4.16-1.93-2.52-.96-5.06-1.86-7.65-2.59-4.87-1.38-9.92-2.18-14.98-2.16-4.68.02-9.37.74-13.8 2.26-3.58 1.23-6.96 2.97-10.24 4.85-1.29.74-2.58 1.51-3.71 2.48s-2.11 2.16-2.64 3.55c-.64 1.64-.62 3.52 0 5.18.73 1.97 2.27 3.58 4.05 4.71 1.78 1.13 3.79 1.83 5.82 2.4 6.72 1.88 13.78 2.44 20.74 1.95Z" class="cls-5"/><path d="M59.65 39.73c1.57.2 3.15.23 4.72.08 1-.09 2-.26 2.94-.59.95-.33 1.84-.84 2.55-1.54.74-.74 1.26-1.7 1.47-2.72.21-1.02.12-2.1-.25-3.08-.5-1.3-1.5-2.36-2.65-3.14-1.14-.79-2.44-1.32-3.75-1.81-3.13-1.17-6.34-2.09-9.6-2.82-4.36-.97-8.8-1.59-13.26-1.68-2.7-.05-5.49.12-7.93 1.3-1.07.52-2.06 1.24-2.74 2.21a5.14 5.14 0 0 0-.89 2.21c-.11.79-.02 1.62.28 2.36.39.96 1.12 1.76 1.96 2.37.84.61 1.8 1.05 2.76 1.44 6.34 2.57 13.23 3.39 19.97 4.57 1.48.26 2.95.54 4.42.84Z" class="cls-1"/><path d="M4.21 23.67c-.5 1.03-.87 2.12-1.08 3.23-.48 2.55-.14 5.26 1.24 7.52 1.59 2.61 4.39 4.43 7.27 5.86 11.24 5.6 24.63 6.56 37.42 5.67 8.88-.61 18.04-2.18 25.24-6.94 2.36-1.56 4.51-3.52 5.62-5.96 1.23-2.7 1.08-5.82-.06-8.55-.6-1.44-1.46-2.79-2.53-3.98L4.21 23.67Z" class="cls-3"/><path d="M15.04 23.21c-.9 1.55-1.37 3.13-1.39 4.73.03 7.88 10.93 15.03 27.92 18.31-10.41.05-20.87-1.45-29.93-5.96-2.88-1.44-5.68-3.25-7.27-5.86-1.38-2.26-1.72-4.97-1.24-7.52.21-1.11.57-2.19 1.08-3.23l10.83-.46Z" class="cls-8"/><path d="M3.73 25.67c0 8.7 17.06 15.75 38.11 15.75s38.11-7.05 38.11-15.75S62.89 9.92 41.84 9.92 3.73 16.97 3.73 25.67Z" class="cls-9"/><path d="M10.52 23.4c-.83 1.48-1.26 3-1.28 4.53.02 7.79 10.68 14.88 27.38 18.2-8.74-.4-17.35-2.06-24.97-5.86-2.88-1.44-5.68-3.25-7.27-5.86-1.38-2.26-1.72-4.97-1.24-7.52.21-1.11.57-2.19 1.08-3.23l6.3-.27Z" class="cls-12"/><path d="M39.93 9.96c-16.09 3.42-26.25 10.37-26.27 17.98.01 3.93 2.75 7.77 7.87 11.05-11.07-2.88-17.79-7.91-17.8-13.32.03-8.39 15.94-15.29 36.2-15.71Z" class="cls-6"/><path d="M34.06 10.25C18.76 13.79 9.24 20.57 9.24 27.93c.01 2.83 1.43 5.62 4.18 8.2-6.23-2.88-9.67-6.61-9.69-10.47 0-7.46 12.67-13.89 30.34-15.42Z" class="cls-10"/><path d="M47.16 38.93c6.74-.48 13.39-1.93 19.83-3.99 1.79-.57 3.57-1.2 5.22-2.11 1.64-.91 3.14-2.13 4.16-3.71.73-1.12 1.2-2.43 1.3-3.76.11-1.33-.14-2.7-.76-3.89-.71-1.36-1.88-2.43-3.18-3.24-1.3-.81-2.73-1.39-4.16-1.93-2.52-.96-5.06-1.86-7.65-2.59-4.87-1.37-9.92-2.17-14.98-2.15-4.68.02-9.37.74-13.8 2.26-3.57 1.23-6.96 2.97-10.24 4.85-1.29.74-2.58 1.51-3.71 2.48s-2.11 2.16-2.65 3.55c-.64 1.64-.61 3.52 0 5.17.74 1.98 2.27 3.58 4.05 4.71 1.78 1.13 3.8 1.83 5.83 2.4 6.72 1.88 13.78 2.44 20.74 1.94Z" class="cls-5"/><path d="M61.91 30.57c1.57.2 3.16.23 4.73.08 1-.1 1.99-.26 2.94-.59.94-.33 1.84-.83 2.55-1.54.73-.74 1.25-1.69 1.47-2.72.21-1.02.13-2.11-.25-3.08-.51-1.29-1.5-2.36-2.65-3.14-1.15-.79-2.44-1.32-3.75-1.81-3.13-1.17-6.34-2.09-9.6-2.82-4.36-.97-8.8-1.59-13.26-1.68-2.7-.05-5.5.12-7.93 1.3-1.07.52-2.06 1.24-2.75 2.21-.46.65-.77 1.42-.89 2.21-.11.79-.02 1.62.28 2.36.39.96 1.12 1.77 1.96 2.38.84.61 1.8 1.05 2.76 1.44 6.34 2.57 13.23 3.38 19.97 4.57 1.48.26 2.95.54 4.42.84Z" class="cls-1"/><path d="M1.29 13.76c-.5 1.03-.87 2.11-1.08 3.22-.49 2.55-.14 5.26 1.24 7.52 1.59 2.61 4.39 4.43 7.27 5.86 11.25 5.6 24.63 6.56 37.42 5.68 8.88-.61 18.04-2.18 25.24-6.95 2.36-1.56 4.51-3.51 5.63-5.96 1.23-2.7 1.07-5.82-.06-8.55-.6-1.44-1.46-2.79-2.53-3.98L1.29 13.76Z" class="cls-3"/><path d="M12.11 13.29c-.9 1.55-1.37 3.13-1.38 4.73.02 7.88 10.93 15.04 27.92 18.31-10.41.05-20.87-1.45-29.93-5.96-2.88-1.43-5.68-3.25-7.27-5.86C.07 22.24-.28 19.53.21 16.98c.21-1.11.57-2.2 1.08-3.22l10.83-.47Z" class="cls-8"/><path d="M.8 15.75c0 8.7 17.06 15.75 38.11 15.75s38.11-7.05 38.11-15.75S59.95 0 38.91 0 .8 7.05.8 15.75Z" class="cls-9"/><path d="M7.59 13.48c-.83 1.48-1.26 3.01-1.28 4.53.02 7.79 10.68 14.88 27.38 18.21-8.74-.4-17.34-2.06-24.97-5.86-2.88-1.43-5.68-3.25-7.27-5.86C.07 22.24-.28 19.53.21 16.98c.21-1.11.57-2.2 1.08-3.22l6.3-.27Z" class="cls-12"/><path d="M37 .04C20.91 3.46 10.75 10.41 10.73 18.02c.01 3.93 2.75 7.77 7.87 11.06C7.52 26.19.8 21.16.8 15.75.82 7.37 16.74.46 37 .04Z" class="cls-6"/><path d="M31.14.34C15.83 3.87 6.31 10.65 6.31 18.02c.01 2.83 1.44 5.62 4.18 8.21C4.26 23.34.81 19.61.8 15.75.8 8.29 13.47 1.86 31.14.34Z" class="cls-10"/><path d="M44.23 29.01c6.74-.48 13.39-1.93 19.83-3.98 1.79-.57 3.57-1.2 5.21-2.11 1.64-.91 3.14-2.14 4.16-3.71.73-1.13 1.2-2.43 1.31-3.76.11-1.34-.14-2.71-.77-3.89-.71-1.36-1.88-2.43-3.18-3.24-1.29-.81-2.72-1.39-4.15-1.93-2.52-.96-5.06-1.85-7.65-2.59C54.12 2.42 49.07 1.62 44 1.64c-4.68.02-9.37.74-13.79 2.27-3.58 1.23-6.96 2.96-10.24 4.85-1.29.74-2.58 1.52-3.71 2.48-1.13.97-2.11 2.16-2.65 3.55-.63 1.64-.61 3.52 0 5.17.74 1.97 2.27 3.58 4.05 4.71 1.78 1.13 3.79 1.83 5.82 2.39 6.72 1.88 13.78 2.44 20.74 1.95Z" class="cls-5"/><path d="M58.98 20.66c1.57.2 3.16.22 4.73.07 1-.09 1.99-.26 2.94-.59.95-.33 1.84-.84 2.55-1.54s1.25-1.69 1.47-2.71c.21-1.02.12-2.11-.25-3.08-.5-1.3-1.5-2.36-2.65-3.14-1.15-.79-2.44-1.32-3.75-1.81-3.12-1.17-6.34-2.09-9.6-2.82-4.36-.97-8.8-1.59-13.26-1.68-2.7-.05-5.5.11-7.93 1.29-1.07.52-2.06 1.24-2.74 2.21a5.14 5.14 0 0 0-.89 2.21c-.11.8-.02 1.62.28 2.36.39.96 1.12 1.76 1.96 2.37.84.61 1.8 1.05 2.76 1.44 6.34 2.58 13.23 3.39 19.97 4.57 1.48.26 2.95.54 4.42.84Z" class="cls-1"/><path d="M39.79 11.58c1.3.49 2.44 1.05 3.22 1.77.25 2.02.42 4.04 0 6.06-4.68.66-9.03.29-13.42 0-1.05-.28-2.1-.54-3.22-1.78-.22-1.88-.38-3.8 0-6.06 4.18-.33 8.64-.35 13.42 0Z" style="fill:#ffff6f"/><path d="M64.72 25.27c1.14-.44 2.2-1.11 3.07-1.97.87-.86 1.54-1.93 1.92-3.09.51-1.58.46-3.31-.03-4.89-.48-1.58-1.39-3.02-2.53-4.22-2.27-2.41-5.36-3.87-8.46-5.04C53.47 4.09 48 2.77 42.45 2.2c-9.31-.96-18.96.25-27.38 4.34-2.69 1.31-5.31 2.95-7.13 5.33-.91 1.18-1.61 2.55-1.96 4-.35 1.46-.33 3.01.12 4.43.55 1.7 1.71 3.18 2.12 4.92.41 1.72.05 3.54-.47 5.23-.52 1.7-1.19 3.36-1.44 5.11-.12.88-.13 1.78.05 2.64.18.87.55 1.7 1.12 2.38.58.67 1.37 1.17 2.24 1.32.88.16 1.82-.05 2.51-.6.37-.3.66-.68.86-1.11.2-.43.32-.89.38-1.36.1-.94-.07-1.88-.29-2.8-.23-.92-.51-1.82-.66-2.75-.14-.93-.14-1.91.21-2.79.34-.88 1.01-1.61 1.84-2.05.83-.44 1.81-.58 2.73-.42 1.07.18 2.05.77 2.8 1.55.75.79 1.27 1.77 1.59 2.81.41 1.3.51 2.7.27 4.04-.35 1.93-1.38 3.72-1.52 5.68-.08 1.01.1 2.04.54 2.95.44.91 1.15 1.7 2.03 2.19.96.54 2.12.73 3.2.5 1.08-.23 2.07-.87 2.71-1.77.62-.88.9-1.96.93-3.03.03-1.07-.19-2.14-.49-3.17-.35-1.18-.8-2.34-1.04-3.55-.11-.57-.17-1.18.02-1.74.15-.44.46-.83.84-1.11.38-.28.83-.45 1.3-.55.93-.18 1.88-.04 2.82.1 2.05.31 4.13.64 5.96 1.6.92.48 1.76 1.11 2.41 1.92.65.8 1.1 1.79 1.21 2.81.13 1.19-.2 2.38-.23 3.57-.01.6.05 1.21.27 1.76.22.55.62 1.05 1.16 1.32.32.16.69.23 1.05.22.36-.01.72-.11 1.04-.27.64-.33 1.14-.91 1.43-1.57.29-.66.4-1.4.39-2.12 0-.72-.12-1.44-.26-2.15-.27-1.42-.62-2.88-.32-4.29.15-.71.47-1.39.98-1.9s1.23-.83 1.95-.8c.45.02.89.18 1.28.41.39.23.73.55 1.03.88.61.67 1.09 1.46 1.72 2.11.66.69 1.48 1.21 2.25 1.78.77.57 1.5 1.23 1.93 2.08.41.82.51 1.75.64 2.66s.32 1.84.89 2.57c.56.73 1.47 1.16 2.39 1.19.92.03 1.84-.33 2.51-.95.68-.61 1.12-1.46 1.3-2.36.18-.89.1-1.83-.18-2.71-.44-1.42-1.42-2.68-2.73-3.38-.38-.2-.78-.35-1.17-.53-.39-.18-.77-.38-1.08-.68-.43-.4-.7-.93-.97-1.45-.53-1.05-1.08-2.11-1.33-3.25-.12-.57-.17-1.17-.11-1.75.07-.58.26-1.16.58-1.64.57-.86 1.5-1.41 2.46-1.77.96-.37 1.97-.59 2.93-.96Z" style="fill:#be3509"/><path d="M64.03 38.75c.47.34.88.76 1.19 1.25.46.71.72 1.58.56 2.41-.12.65-.51 1.25-1.05 1.63.17-.38.29-.77.36-1.17.14-.79.07-1.62-.16-2.39a5.47 5.47 0 0 0-.89-1.73ZM47.6 41.59c.04.8-.09 1.61-.37 2.36-.13.35-.29.68-.52.98-.22.3-.51.55-.85.7-.46.2-1.02.2-1.48 0a3.78 3.78 0 0 0 1.48-.54c.58-.36 1.05-.89 1.36-1.5.3-.61.44-1.31.38-1.99ZM29.29 41.31c.04.66.01 1.33-.09 1.99-.12.8-.35 1.6-.8 2.27-.46.69-1.15 1.23-1.93 1.48-.61.19-1.26.2-1.88.03-.61-.16-1.18-.5-1.61-.97.53.4 1.2.61 1.87.59.71-.02 1.4-.31 1.96-.75.57-.43 1.02-1 1.39-1.61.56-.93.92-1.97 1.08-3.04ZM12.66 36.41c.22.55.35 1.14.36 1.73.02.73-.14 1.47-.52 2.09-.53.86-1.52 1.43-2.53 1.46.41-.27.78-.59 1.12-.94.44-.45.81-.96 1.09-1.53.42-.87.59-1.85.49-2.81ZM58.22 7.51c2.15.54 4.18 1.56 5.89 2.97 1.8 1.48 3.29 3.46 3.7 5.75.34 1.88-.09 3.87-1.16 5.44A7.446 7.446 0 0 1 62 24.74a7.22 7.22 0 0 0 4.18-3.29c.91-1.57 1.19-3.5.77-5.26-.4-1.63-1.35-3.08-2.48-4.33-1.72-1.9-3.87-3.41-6.25-4.36ZM19.96 7.78c-3.21.79-6.19 2.48-8.52 4.82-.82.82-1.57 1.73-2.02 2.8-.45 1.07-.59 2.3-.19 3.39.29.79.86 1.46 1.52 2 .66.53 1.41.93 2.18 1.3 4.04 1.95 8.45 3.1 12.93 3.39-3.38-.71-6.72-1.61-9.99-2.7-1.14-.38-2.29-.79-3.3-1.46-1.01-.66-1.87-1.61-2.21-2.77-.2-.69-.21-1.43-.08-2.13.13-.71.41-1.38.77-2 1-1.74 2.58-3.07 4.26-4.18 1.47-.97 3.03-1.79 4.66-2.46ZM58.19 29.47c0 1 .14 2.01.41 2.95.36 1.26.96 2.41 1.73 3.34-.35-.29-.67-.62-.95-1.01-1.02-1.4-1.46-3.41-1.19-5.28ZM13.96 28.25c-.73.49-1.3 1.21-1.62 2.02a4.47 4.47 0 0 0-.07 3.08c-.23-.45-.36-.94-.41-1.44-.06-.68.06-1.39.36-2 .36-.73.99-1.34 1.74-1.66ZM31.33 5.4a36.601 36.601 0 0 0-9.69 1.81 16.56 16.56 0 0 1 4.68-1.62c1.65-.31 3.34-.38 5.01-.19ZM49.32 32.83c-.49.2-.93.51-1.29.89-.83.89-1.18 2.2-.91 3.38-.11-.33-.18-.68-.2-1.02-.04-.8.2-1.61.71-2.23.43-.52 1.03-.89 1.69-1.02ZM30.16 32.5c-.54.12-1.04.4-1.43.78-.44.43-.74 1-.84 1.6-.09.57 0 1.17.27 1.68-.27-.38-.43-.84-.46-1.3-.03-.46.07-.94.28-1.35.21-.4.52-.75.9-1s.83-.39 1.28-.41Z" class="cls-2"/><path d="M52.54 33.99c.51.6 1.07 1.16 1.68 1.68 1.04.88 2.18 1.63 3.25 2.47.78.61 1.53 1.3 2.02 2.16.51.88.73 1.9.89 2.91.07.44.14.88.27 1.3.14.42.35.83.67 1.13.42.38.98.56 1.54.64.44.07.88.08 1.32.04-.52.26-1.1.4-1.68.38-.92-.03-1.82-.46-2.39-1.19-.56-.72-.75-1.66-.89-2.57s-.23-1.84-.64-2.66c-.43-.85-1.17-1.5-1.93-2.08-.77-.58-1.58-1.09-2.25-1.78-.63-.65-1.11-1.43-1.72-2.11-.05-.06-.11-.12-.17-.18l.03-.15ZM32.98 32.83c.86 0 1.72.07 2.57.21 1.05.16 2.09.43 3.09.8.65.24 1.29.51 1.87.88.52.32 1 .72 1.41 1.18.88.99 1.4 2.3 1.45 3.62.04 1.03-.2 2.06-.19 3.09 0 1.12.3 2.24.86 3.21 0 0-.01.02-.02.02-.48-.28-.84-.75-1.05-1.27-.22-.56-.29-1.16-.27-1.76.03-1.2.36-2.38.23-3.57-.11-1.03-.56-2.01-1.21-2.81-.65-.8-1.49-1.44-2.41-1.92-1.83-.96-3.92-1.29-5.96-1.6-.16-.02-.33-.05-.5-.07H33ZM17.43 28.02c.27-.01.54.02.81.07.7.16 1.34.55 1.88 1.02.68.59 1.22 1.33 1.67 2.1.54.93.97 1.95 1.08 3.02.14 1.33-.21 2.66-.65 3.93-.44 1.31-.99 2.61-1.13 3.99a7.05 7.05 0 0 0 .94 4.3c-.42-.41-.77-.9-1.03-1.43a5.78 5.78 0 0 1-.54-2.95c.14-1.96 1.17-3.75 1.52-5.68.24-1.34.14-2.74-.27-4.04-.32-1.04-.84-2.02-1.59-2.81-.73-.77-1.69-1.34-2.73-1.54h.03ZM5.81 18.87c.46.97.96 1.93 1.5 2.85.71 1.21 1.5 2.43 1.75 3.81.17.92.09 1.88-.11 2.79-.2.91-.51 1.8-.8 2.7-.66 1.98-1.24 4.01-1.22 6.09 0 1.2.22 2.38.62 3.51-.01-.02-.03-.03-.04-.05-.58-.67-.95-1.51-1.12-2.38a8.07 8.07 0 0 1-.05-2.64c.25-1.75.92-3.41 1.44-5.11.52-1.7.88-3.51.47-5.23-.41-1.74-1.57-3.22-2.12-4.92-.15-.46-.25-.94-.31-1.43Z" class="cls-4"/><path d="M37.19 1.89c1.76.02 3.52.13 5.26.3 1.77.18 3.54.45 5.29.79-2.83-.09-5.82-.36-8.65-.27-4.15.12-8.38.46-12.5 1.03-2.67.37-5.11 1.1-7.65 2.02-2.54.92-6.71 3.64-8.58 5.6-1.87 1.96-2.54 3.25-3.05 5.18-.56 2.1.07 5.25.07 6.51-.46-.9-.96-1.79-1.27-2.75-.46-1.43-.47-2.98-.12-4.43.35-1.45 1.05-2.82 1.96-4 1.82-2.37 4.44-4.02 7.13-5.33 6.84-3.32 14.49-4.74 22.11-4.65Z" class="cls-4"/></g></svg>