<svg xmlns="http://www.w3.org/2000/svg" data-name="Layer 2" viewBox="0 0 82.5 60.8"><g data-name="Layer 1"><path d="M1 24.88v22.55c0 1.8-.08 3.63.36 5.39.52 2.07 1.86 4 3.76 5.37 1.9 1.38 4.33 2.21 6.81 2.32l69.12.28.23-35.92H1Z" style="fill:#502d16"/><path d="M13.96 24.88c-.07.79-.11 1.58-.12 2.37.01 14.71 12.54 27.94 31.65 33.4l-33.56-.13c-2.49-.11-4.92-.94-6.81-2.32-1.89-1.38-3.23-3.3-3.76-5.37C.92 51.06 1 49.24 1 47.44V24.89h12.96Z" style="fill:#3e2314"/><path d="M77.98 24.88c.57.32 1.12.66 1.64 1.04.62.45 1.19.96 1.65 1.52l-.04 6.62c-1.3 1.56-3.49 2.53-5.74 2.61-1.75.06-3.52-.41-4.93-1.3-1.41-.89-2.44-2.21-2.88-3.66-.32.95-.94 1.82-1.78 2.5-.84.68-1.9 1.15-3.03 1.37-1.75.33-3.65 0-5.11-.87-1.46-.87-2.47-2.29-2.7-3.8-.3 1.17-1 2.26-1.98 3.11-.98.85-2.26 1.45-3.62 1.72-1.96.38-4.09.05-5.77-.9-1.68-.95-2.86-2.49-3.21-4.18-.82 1.19-2.01 2.2-3.41 2.89-1.4.69-3.01 1.07-4.64 1.08-1.6.01-3.2-.33-4.61-.98-1.4-.66-2.6-1.62-3.46-2.78-.65 1.07-1.72 1.96-3 2.47-1.28.51-2.76.66-4.14.39-1.06-.2-2.06-.63-2.87-1.23-.82-.61-1.45-1.4-1.82-2.27-.75 1.17-2.01 2.09-3.47 2.57-1.46.47-3.12.49-4.59.05-1.28-.38-2.41-1.1-3.2-2.03-.09-.11-.18-.23-.27-.35v-5.58h76.98Z" style="fill:#3a2010"/><path d="M13.96 24.88c-.07.79-.11 1.58-.12 2.37.02 1.77.23 3.54.61 5.3-.04-.02-.07-.04-.1-.06-.82-.61-1.45-1.4-1.82-2.27-.75 1.17-2.01 2.09-3.47 2.57-1.46.47-3.12.49-4.59.05-1.28-.38-2.41-1.1-3.2-2.03-.09-.11-.18-.23-.27-.35v-5.58h12.96Z" style="fill:#2a170e"/><path d="M9.52 24.88c-.19 1.3-.29 2.61-.31 3.92.01 12.8 8.09 24.74 21.52 31.8l-18.8-.07c-2.49-.11-4.92-.94-6.81-2.32-1.89-1.38-3.23-3.3-3.76-5.37C.92 51.07 1 49.25 1 47.45V24.9h8.52Z" style="fill:#2c170e"/><path d="m81.19 40.07-.05 7.84H12.73c-2.55 0-4.6-1.75-4.6-3.92s2.05-3.92 4.6-3.92h68.46Z" style="fill:#784421"/><path d="M17.2 40.07c1.47 2.77 3.41 5.41 5.79 7.84H12.73c-2.55 0-4.6-1.75-4.6-3.92s2.05-3.92 4.6-3.92h4.47Z" style="fill:#663b20"/><path d="M9.52 24.88c-.19 1.3-.29 2.61-.31 3.92 0 1.29.08 2.57.25 3.84-.13.05-.26.1-.4.15-1.46.47-3.12.49-4.59.05-1.28-.38-2.41-1.1-3.2-2.03-.09-.11-.18-.23-.27-.35v-5.58h8.52Z" style="fill:#1d0e09"/><path d="M81.96 25.79c-.51-1-1.37-1.86-2.34-2.57-.98-.72-2.07-1.29-3.16-1.86A443.457 443.457 0 0 0 28.97 0c-6.95.44-13.7 2.92-18.84 6.93C4.24 11.52.53 18.09 0 24.88c.03 1.15.48 2.29 1.27 3.23.79.93 1.93 1.65 3.2 2.04 1.47.44 3.13.42 4.59-.05 1.46-.48 2.71-1.4 3.47-2.57.38.87 1.01 1.66 1.82 2.27.82.61 1.81 1.04 2.87 1.23 1.38.26 2.86.12 4.14-.39 1.28-.52 2.36-1.4 3-2.47.86 1.16 2.06 2.12 3.46 2.78 1.41.65 3.01 1 4.61.99 1.62-.01 3.23-.39 4.64-1.08 1.4-.69 2.59-1.7 3.41-2.89.35 1.69 1.54 3.23 3.21 4.18 1.67.95 3.81 1.28 5.77.9 1.36-.27 2.64-.87 3.62-1.72s1.68-1.94 1.98-3.11c.23 1.51 1.24 2.93 2.7 3.8 1.46.88 3.36 1.2 5.11.87 1.13-.22 2.19-.69 3.03-1.37.84-.68 1.47-1.55 1.78-2.5.44 1.45 1.47 2.76 2.88 3.66 1.41.89 3.18 1.36 4.93 1.3 2.27-.08 4.49-1.07 5.78-2.65.65-.8 1.06-1.73 1.19-2.69.13-.96-.04-1.95-.5-2.84Z" style="fill:#e6e6e6"/><path d="M28.97 0c.54-.02 1 .39 1.5.58-10.57 6.81-16.61 16.5-16.63 26.68.02.75.07 1.49.16 2.24-.64-.56-1.15-1.23-1.46-1.97-.75 1.17-2.01 2.09-3.47 2.57-1.46.48-3.12.5-4.59.05-1.28-.38-2.41-1.1-3.2-2.04-.79-.93-1.24-2.07-1.27-3.23.53-6.79 4.24-13.36 10.13-17.95C15.27 2.92 22.01.23 28.97 0Z" style="fill:#e0e0e0"/><path d="M25.19.45C15.04 7.67 9.23 17.99 9.21 28.81c.02.4.04.8.08 1.2-.08.03-.15.06-.23.08-1.46.48-3.12.5-4.59.05-1.28-.38-2.41-1.1-3.2-2.04C.48 27.17.03 26.03 0 24.87c.53-6.79 4.24-13.36 10.13-17.95 4.2-3.26 9.48-5.52 15.06-6.47Z" style="fill:#d8d8d8"/><path d="M78.1 24.39c-.04.15-.13.28-.25.38-.12.1-.26.17-.41.21-.3.09-.61.07-.92.05-13.32-.71-26.72-.25-40-1.59-7.89-.8-15.72-2.22-23.64-2.75-.93-.06-1.88-.11-2.77-.36-.9-.25-1.77-.73-2.32-1.48-.31-.43-.51-.93-.6-1.46-.09-.52-.07-1.06.03-1.58.21-1.04.73-1.99 1.35-2.85 1.41-1.96 3.3-3.51 5.23-4.95 2.29-1.71 4.69-3.32 7.29-4.5 1.82-.82 3.78-1.45 5.78-1.38 1.24.04 2.46.35 3.65.71 2.61.78 5.13 1.81 7.65 2.82 2.71 1.09 5.43 2.16 8.12 3.3 4.94 2.08 9.78 4.38 14.72 6.48 5.5 2.33 11.16 4.42 16.21 7.61.24.16.49.31.67.54.09.11.16.24.2.38.04.14.05.29 0 .43Z" style="fill:#f0f0f0"/><path d="M26.88 2.13c.38.01.75.06 1.12.11-6.91 5.12-11.55 11.59-13.32 18.59-.59-.05-1.18-.1-1.77-.14-.93-.06-1.88-.11-2.77-.36-.9-.25-1.77-.73-2.32-1.48-.31-.43-.51-.93-.6-1.46-.09-.52-.07-1.06.03-1.58.2-1.04.73-1.99 1.35-2.86C10.01 11 11.9 9.45 13.83 8c2.29-1.71 4.69-3.32 7.29-4.5 1.82-.82 3.78-1.45 5.78-1.38Z" style="fill:#eaeaea"/><path d="M21.61 3.29c-5.5 4.85-9.34 10.75-11.15 17.11-.11-.02-.23-.04-.34-.07-.9-.25-1.77-.73-2.32-1.48-.31-.43-.51-.93-.6-1.46-.09-.52-.07-1.06.03-1.58.2-1.04.73-1.99 1.35-2.86C9.99 11 11.88 9.45 13.81 8c2.29-1.71 4.69-3.32 7.29-4.5.17-.07.34-.15.51-.22Z" style="fill:#e2e2e2"/><path d="M11.43 40.23c1.07 2.68 2.51 5.25 4.29 7.68h-2.99c-2.55 0-4.6-1.75-4.6-3.92 0-1.79 1.39-3.29 3.3-3.76Z" style="fill:#57321d"/><path d="M24.74 20.79c4.24.68 8.53.83 12.81 1.12 6.39.42 12.76 1.13 19.16 1.29 3.14.08 6.3.02 9.4-.47.54-.08 1.08-.18 1.58-.39.5-.21.96-.55 1.24-1.02.12-.2.2-.42.21-.65a.96.96 0 0 0-.21-.65c-.15-.17-.38-.26-.59-.35-6.59-2.71-13-5.84-19.63-8.46-3.21-1.27-6.46-2.42-9.64-3.76-.98-.41-1.95-.85-2.97-1.15-1.02-.31-2.09-.48-3.14-.38-1.04.11-2.04.5-2.95 1.01-.91.52-1.75 1.16-2.57 1.81-2.27 1.8-4.5 3.75-5.99 6.23-.32.53-.61 1.09-.76 1.69-.15.6-.16 1.25.05 1.83.15.38.38.71.67 1 .29.28.63.5 1 .68.73.34 1.53.49 2.33.62Z" style="fill:#f8f8f8"/><path d="M62.12 21.11c-5.71-1.42-11.59-1.96-17.45-2.45-1.73-.14-3.5-.29-5.09-1-.79-.36-1.53-.85-2.11-1.5-.58-.65-.99-1.46-1.1-2.32-.09-.69 0-1.4.31-2.03.3-.63.81-1.16 1.43-1.46.72-.35 1.56-.4 2.36-.27.79.12 1.55.41 2.3.69 3.34 1.26 6.68 2.53 9.97 3.91 3.18 1.33 6.33 2.76 9.64 3.74.57.17 1.17.33 1.61.73.22.2.4.45.48.74.08.29.05.61-.11.86-.11.18-.26.31-.45.4-.18.09-.39.14-.59.15-.41.03-.81-.08-1.2-.18Z" style="fill:#fff"/><path d="M78.07 55.57c.62-.65 1.04-1.48 1.28-2.35.24-.87.32-1.78.3-2.68-.04-1.8-.42-3.59-.46-5.39-.03-1.07.07-2.14-.02-3.21-.09-1.07-.38-2.16-1.07-2.97-.7-.82-1.76-1.28-2.83-1.48-1.07-.19-2.16-.14-3.25-.1-5.05.19-10.11.12-15.16 0-5.64-.14-11.29-.36-16.93 0-3.57.23-7.18.69-10.69 0-.93-.18-1.86-.45-2.8-.44-.48 0-.95.08-1.39.27-.43.18-.83.48-1.09.87a2.4 2.4 0 0 0-.39 1.18c-.03.42.04.84.17 1.24.26.8.76 1.5 1.28 2.16 1.64 2.1 3.5 4.03 5.52 5.76 3.08 2.62 6.57 4.79 10.34 6.23 4.5 1.71 9.32 2.37 14.11 2.82 4.73.44 9.47.69 14.22.59 2.25-.05 4.56-.19 6.64-1.06.83-.34 1.62-.8 2.23-1.45Z" style="fill:#603516"/><path d="M78.75 40.07c.24.59.37 1.23.42 1.88.09 1.07 0 2.14.02 3.21.02.92.13 1.84.24 2.75H29.92a39.728 39.728 0 0 1-4.91-5.22c-.52-.66-1.02-1.36-1.28-2.16-.05-.15-.09-.3-.11-.46h55.14Z" style="fill:#8b4d21"/><path d="M74.96 39.39c.46.36.81.83 1.07 1.35.25.52.41 1.08.49 1.65.18 1.14.09 2.31.08 3.46 0 1.48.14 2.96.03 4.45-.11 1.48-.5 2.98-1.44 4.13-.9 1.11-2.24 1.79-3.64 2.07-1.4.28-2.84.18-4.24-.07-2.18-.4-4.32-1.2-6.07-2.55-1.76-1.35-3.12-3.27-3.56-5.44-.3-1.44-.18-2.97.37-4.33a6.914 6.914 0 0 1 2.8-3.31c1.13-.67 2.43-.99 3.73-1.17 1.3-.19 2.62-.25 3.91-.47 1.1-.19 2.18-.49 3.29-.56.55-.04 1.12-.01 1.66.11.54.12 1.07.34 1.51.68Z" style="fill:#743f16"/><path d="M75.61 40.07c.16.21.3.43.42.67.25.52.41 1.08.49 1.65.18 1.14.09 2.31.08 3.46 0 .68.03 1.37.05 2.05H57.59a7.58 7.58 0 0 1 .46-3.8 6.914 6.914 0 0 1 2.8-3.31c.54-.32 1.11-.55 1.7-.73H75.6Z" style="fill:#a15821"/></g></svg>