<svg xmlns="http://www.w3.org/2000/svg" id="Layer_2" data-name="Layer 2" viewBox="0 0 79.41 60.99"><defs><style>.cls-1{fill:#ff6901}.cls-3{fill:#c64e00}.cls-5{fill:#ba4800}.cls-6{fill:#e65e00}.cls-7{fill:#c24c00}</style></defs><g id="Layer_1-2" data-name="Layer 1"><path d="M54.82 53.84c1.25.78 2.79 1.07 4.23.79 1.44-.27 2.77-1.1 3.65-2.28 1.02-1.37 1.41-3.15 1.34-4.86-.07-1.72-.55-3.38-1.14-4.99-1.49-4.15-3.59-8.05-5.77-11.88-3.69-6.48-7.65-12.86-12.61-18.43-4.16-4.67-9.14-8.81-15.05-10.85C25.19-.13 20.49-.44 16.1.65 11.71 1.74 7.66 4.26 4.89 7.83c-2.8 3.6-4.23 8.12-4.7 12.65-.66 6.3.45 12.78 3.2 18.48 3.42 7.08 9.31 12.85 16.2 16.63a44.173 44.173 0 0 0 15.66 5.06c10.88 1.37 22.33-1.5 30.98-8.25 5.06-3.95 9.16-9.21 11.35-15.25 2.13-5.84 2.43-12.35.75-18.35-.9-3.23-2.38-6.32-4.43-8.97-2.06-2.65-4.71-4.86-7.75-6.27-3.54-1.64-7.55-2.18-11.43-1.73-3.88.45-7.61 1.88-10.92 3.95-6.7 4.2-11.45 10.83-15.88 17.38-2.18 3.23-4.33 6.47-6.43 9.76-1.86 2.92-3.72 5.93-4.55 9.29-.39 1.55-.55 3.16-.36 4.74.19 1.58.74 3.13 1.68 4.41.95 1.28 2.3 2.28 3.85 2.68 1.54.41 3.25.2 4.59-.66 1.47-.94 2.36-2.52 3.21-4.03 1.98-3.51 4.06-6.97 6.06-10.46 3.6-6.29 7.01-12.74 11.59-18.36 1.11-1.36 2.3-2.68 3.7-3.73 1.41-1.05 3.05-1.83 4.8-2 1.67-.16 3.37.23 4.84 1.03 1.47.8 2.72 1.99 3.68 3.36 1.3 1.86 2.08 4.06 2.33 6.32.25 2.25-.03 4.55-.73 6.71-.94 2.91-2.62 5.55-4.7 7.79s-4.54 4.1-7.16 5.68c-3.58 2.18-7.49 3.88-11.59 4.69-4.11.81-8.44.72-12.42-.57-3.71-1.21-7.05-3.43-9.82-6.18-2.77-2.75-4.99-6.02-6.81-9.47-1.34-2.54-2.48-5.22-2.89-8.06-.41-2.84-.03-5.86 1.49-8.3 1.07-1.72 2.68-3.08 4.52-3.91 1.84-.82 3.92-1.12 5.93-.89 3.37.39 6.45 2.2 8.9 4.54 2.46 2.34 4.36 5.18 6.19 8.03 2.5 3.89 4.91 7.84 7 11.96 2.13 4.18 3.94 8.54 6.65 12.36 1 1.4 2.11 2.73 3.32 3.95Z" style="fill:#d45500"/><path d="M57.64 1.69c2.93.04 5.85.65 8.51 1.88 3.05 1.41 5.7 3.61 7.77 6.26.6.77 1.15 1.59 1.65 2.43a50.076 50.076 0 0 0-9.14-4.87c-2.08-.84-4.23-1.55-6.46-1.84-4.4-.59-8.95.5-12.82 2.68-3.93 2.21-7.16 5.48-10.15 8.86a127 127 0 0 0-17.05 24.63l-1.98-2.46c.95-2.21 2.23-4.29 3.53-6.32 2.09-3.29 4.25-6.53 6.43-9.76C32.36 16.63 37.11 10 43.81 5.8c3.31-2.07 7.04-3.49 10.92-3.94a23.7 23.7 0 0 1 2.92-.15Z" class="cls-3"/><path d="M57.64 1.69c2.93.04 5.85.65 8.51 1.88 3.05 1.41 5.7 3.61 7.77 6.26.3.38.58.77.85 1.17a29.67 29.67 0 0 0-8.43-5.27c-4.77-1.95-10.19-2.61-15.13-1.1-4.84 1.47-8.84 4.87-12.36 8.48-5.91 6.07-10.89 13-15.5 20.11-1.57 2.43-3.1 4.89-4.6 7.37-.28-.34-.6-.64-.97-.89.96-2.38 2.34-4.6 3.73-6.77 2.09-3.29 4.25-6.53 6.43-9.76 4.43-6.55 9.18-13.18 15.88-17.38 3.31-2.07 7.04-3.49 10.92-3.94a23.7 23.7 0 0 1 2.92-.15Z" class="cls-5"/><path d="M21.13 0c2.82-.05 5.66.41 8.33 1.34.1.04.19.07.29.11-3.29.32-6.54 1-9.68 2-3.42 1.09-6.79 2.62-9.39 5.09-2.19 2.07-3.77 4.73-4.76 7.57-1.6 4.58-1.7 9.63-.57 14.35.97 4.05 2.83 7.87 5.26 11.25 4.21 5.87 10.13 10.44 16.77 13.28 3.67 1.57 7.55 2.61 11.49 3.26 5.12.84 10.35.99 15.51.47-6.11 2.06-12.72 2.74-19.12 1.93a44.238 44.238 0 0 1-15.66-5.06c-6.9-3.78-12.78-9.55-16.2-16.63C.64 33.26-.47 26.78.19 20.48c.48-4.53 1.91-9.05 4.7-12.65C7.66 4.26 11.71 1.75 16.1.65 17.74.24 19.44.03 21.13 0Z" class="cls-3"/><path d="M49.46 18.41v.01c.42.58.83 1.17 1.23 1.76L42.11 32.5l-.29-.48-.96-1.62-.02-.02a100.966 100.966 0 0 1 8.62-11.97ZM38.87 6.74c.56.46 1.11.93 1.65 1.41-.25.22-.5.43-.74.66-1.59 1.46-3.04 3.06-4.46 4.68-1.2 1.37-2.39 2.75-3.55 4.16-.04-.04-.07-.08-.11-.11-.5-.47-1.03-.92-1.57-1.34 1.37-1.69 2.79-3.33 4.27-4.92 1.45-1.56 2.96-3.07 4.51-4.53ZM18.59 37.9c.31.68 1.19 2.18 2.22 3.39 1.03 1.2 2.41 2.46 4.02 3.66 1.62 1.2 3.7 2.42 5.7 3.38-.2.35-.4.69-.6 1.04-.05.08-.1.17-.15.25.03 0 .06.02.09.03-.21-.04-.41-.07-.62-.11-3.04-.72-5.78-2.66-7.75-4.33-1.96-1.67-3.07-3.44-4.11-5.18.05.07.11.15.17.23.3-.8.64-1.59 1.03-2.36ZM60.68 37.29c.38.8.75 1.6 1.1 2.41.02-.02.04-.03.05-.05-.16.28-.32.55-.48.82-2.45 3.89-6.61 6.66-11.14 7.44-.42-.69-.82-1.38-1.21-2.09 1.39-.22 2.76-.62 4.05-1.2 3.28-1.48 6.02-4.12 7.64-7.33Z" class="cls-7"/><path d="M21.13 0c2.63-.05 5.28.36 7.79 1.16-3.62-.32-7.3.09-10.75 1.25-3.71 1.24-7.18 3.34-9.78 6.27-4.12 4.65-5.8 11.15-5.35 17.34.58 7.99 4.5 15.54 10.15 21.22 5.9 5.93 13.63 9.91 21.77 11.81 4.18.98 8.48 1.42 12.77 1.33-4.12.69-8.35.79-12.49.27a44.238 44.238 0 0 1-15.66-5.06c-6.9-3.78-12.78-9.55-16.2-16.63C.64 33.26-.47 26.78.19 20.48c.48-4.53 1.91-9.05 4.7-12.65C7.66 4.26 11.71 1.75 16.1.65 17.74.24 19.44.03 21.13 0Z" class="cls-5"/><path d="M19.45 39.42c.25.39.54.8.84 1.21l.12.17-1.17 2.02c-.4-.52-.77-1.05-1.1-1.57l1.3-1.83Z" style="fill:#b54700"/><path d="M18.59 37.9c.16.34.46.9.85 1.52l-1.3 1.83c-.26-.41-.51-.82-.75-1.22.05.07.11.15.17.23.3-.8.64-1.59 1.03-2.36Z" style="fill:#a94200"/><path d="M46.84 56.92c5.03.91 10.23-.74 14.67-3.27 4.5-2.56 8.53-6.08 11.26-10.48 2.59-4.16 3.97-9 4.32-13.89.29-3.97-.11-8.07-1.83-11.66-1.42-2.97-3.73-5.5-6.55-7.21-4.52-2.73-10.19-3.21-15.32-1.96-5.94 1.45-11.2 5.06-15.32 9.56-3.5 3.81-6.23 8.25-9.43 12.31-.91 1.17-1.87 2.3-2.68 3.55-.81 1.24-1.48 2.6-1.77 4.05-.16.8-.19 1.63-.03 2.43.16.8.51 1.57 1.08 2.16.68.71 1.66 1.13 2.65 1.2.99.07 1.99-.19 2.85-.68 1.22-.69 2.16-1.81 2.88-3.01.72-1.21 1.25-2.52 1.84-3.8 1.76-3.8 4.1-7.3 6.29-10.87 1.21-1.98 2.39-3.99 3.8-5.82 1.41-1.84 3.09-3.52 5.11-4.66 2.75-1.55 6.09-2.02 9.17-1.31 2.86.66 5.48 2.34 7.2 4.71 1.69 2.33 2.47 5.25 2.49 8.12.03 4.51-1.69 8.88-4.06 12.71-2.25 3.63-5.18 6.95-8.91 9.04a18.584 18.584 0 0 1-8.38 2.35c-1.03.04-2.07-.01-3.07.24-.5.12-.98.33-1.39.64-.41.31-.75.73-.91 1.21-.18.53-.16 1.12.02 1.66.19.53.53 1 .96 1.37.85.75 1.97 1.09 3.08 1.29ZM27.28 12.44c.82.23 1.65.48 2.5.46.78-.02 1.55-.25 2.21-.66a4.53 4.53 0 0 0 1.58-1.7c.36-.69.54-1.48.53-2.25-.02-.78-.23-1.56-.61-2.24-.72-1.3-2.02-2.21-3.43-2.69-1.33-.44-2.76-.52-4.16-.38-1.39.14-2.76.51-4.1.92-4.54 1.39-9.01 3.47-12.25 6.94-.47.5-.91 1.04-1.26 1.63-.34.6-.59 1.26-.64 1.95-.05.68.11 1.39.5 1.96.2.28.45.53.75.7.3.18.63.29.98.3.36.02.73-.06 1.06-.2.34-.14.64-.34.92-.58.55-.47 1-1.05 1.49-1.58 2.24-2.4 5.56-3.73 8.84-3.6 1.73.07 3.42.53 5.09 1Z" class="cls-6"/><path d="M68.78 12.71c1.58.73 2.99 1.84 4.06 3.21 1.23 1.57 2.02 3.47 2.42 5.43.25 1.21.35 2.44.33 3.67-.02 1.11-.14 2.21-.46 3.28-.14.48-.34.97-.68 1.35-.17.19-.38.35-.61.45-.23.1-.49.14-.74.1-.2-.03-.4-.12-.56-.23-.16-.12-.3-.27-.41-.44-.22-.34-.32-.75-.34-1.16-.07-1.1.36-2.17.46-3.27.12-1.24-.18-2.48-.52-3.67-.41-1.39-.93-2.79-1.84-3.93-.91-1.13-2.16-1.94-3.14-3.01-.25-.27-.48-.57-.59-.92-.06-.18-.08-.36-.06-.54a1 1 0 0 1 .2-.5c.1-.12.22-.21.36-.27.14-.06.29-.09.45-.1.3-.02.61.07.89.18.27.11.53.23.79.39ZM74.09 31.97c.39.3.62.77.68 1.26.05.49-.06.98-.28 1.43-.27.54-.71 1.02-1.27 1.26-.28.12-.58.19-.88.18-.31-.01-.61-.1-.86-.26s-.46-.38-.6-.64c-.14-.26-.23-.55-.24-.84-.04-.59.17-1.18.52-1.66.33-.46.79-.83 1.34-.99.27-.08.56-.1.84-.06.28.04.55.16.77.33Z" class="cls-1"/><path d="M48.74 25.55c.32-.27.64-.55 1.01-.76.37-.2.79-.33 1.21-.29.26.03.51.12.73.26.22.14.42.31.59.51.34.4.59.87.83 1.33.67 1.27 1.4 2.51 2.16 3.73 1.09 1.75 2.28 3.5 2.75 5.5.2.86.26 1.77 0 2.62-.23.76-.71 1.43-1.28 1.98-.57.56-1.22 1.02-1.86 1.49-.59.43-1.17.86-1.82 1.17-.66.31-1.4.48-2.11.34-.75-.15-1.4-.62-1.89-1.2-.5-.58-.85-1.26-1.19-1.94-.88-1.75-1.7-3.53-2.8-5.15-.25-.37-.52-.73-.73-1.11-.22-.39-.39-.81-.43-1.25-.05-.56.1-1.11.32-1.62.31-.69.77-1.32 1.21-1.94.46-.65.91-1.3 1.43-1.9.56-.64 1.21-1.2 1.85-1.76Z" class="cls-6"/></g></svg>