<svg xmlns="http://www.w3.org/2000/svg" id="Layer_2" data-name="Layer 2" viewBox="0 0 79.23 54.95"><defs><style>.cls-2{fill:#fff}.cls-3{fill:#fdfcfc}</style></defs><g id="Layer_1-2" data-name="Layer 1"><path d="M39.7 0c16.36 0 29.76 5.31 34.9 12.65 3.12 4.54 3.96 12 3.96 15.98 0 4.4-1.06 8.92-3.14 12.83-4.21 7.9-18.74 13.48-35.72 13.48S8.19 49.35 3.98 41.46C1.9 37.55.84 33.04.84 28.63c0-3.98.84-11.44 3.96-15.98C9.94 5.31 23.33 0 39.7 0Zm-.03 10.46a21.861 21.861 0 0 0-1.2.03h.01c.39-.02.79-.03 1.19-.03Zm0 0Zm1.63.07c.19.01.38.03.56.04-.19-.02-.38-.03-.56-.04Zm.71.06c.19.02.38.04.57.07.13.01.26.03.39.05.26.04.52.09.77.13.12.02.25.05.38.07.23.05.45.11.67.16.14.03.27.07.4.1.23.07.45.13.67.2.11.04.23.07.34.11.2.07.39.14.59.22l.39.15c.16.07.32.14.47.21.14.06.27.12.4.19-.13-.06-.26-.12-.4-.19-.45-.21-.94-.41-1.45-.59-.32-.11-.66-.21-1.01-.31-1-.27-2.07-.46-3.18-.58Zm-5.74.14c-.11.02-.22.04-.33.05.11-.02.21-.04.33-.05Zm-1.09.2c-.09.02-.18.04-.26.05.09-.02.17-.04.26-.05Zm-1.24.3c-.68.2-1.33.43-1.93.69-.09.04-.18.09-.27.13-.32.15-.61.3-.9.46.11-.06.21-.12.32-.18.18-.1.38-.19.58-.29.09-.04.18-.09.27-.13.26-.11.53-.22.81-.32.04-.01.07-.03.11-.04.33-.12.66-.23 1.01-.33Zm14.55 1.29c.11.06.23.12.33.19-.11-.07-.22-.13-.33-.19Zm-18.11.26c-.23.15-.46.31-.67.48.11-.09.23-.17.35-.25.11-.07.21-.15.32-.22Zm18.88.23c.09.06.18.12.27.19-.09-.06-.18-.12-.27-.19Zm-19.58.27c-.09.07-.17.14-.25.22l.25-.22Zm20.4.39s.03.03.05.04c-.01-.01-.03-.02-.05-.04Zm-21 .14c-.07.07-.12.13-.19.2.06-.07.12-.13.19-.2Zm-.5.57c-.05.06-.09.12-.13.19.04-.06.09-.12.13-.19Zm-.38.59c-.04.07-.07.14-.11.21.03-.07.07-.14.11-.21Zm11.47.1c-4.1.01-8.05 1.41-11.1 3.92 1.79 2.38 6.19 3.94 11.09 3.95 5.18 0 9.77-1.76 11.35-4.34-.05.08-.1.16-.15.23-.03.05-.06.09-.1.14-3.05-2.5-7-3.89-11.09-3.9Zm-11.74.49c-.03.09-.05.17-.07.25.02-.09.05-.17.07-.25Zm23.49.12c.04.13.09.26.11.39.04.21.06.41.06.62 0-.34-.06-.68-.17-1.01Zm-23.64.48Zm23.68 1.41c-.02.08-.05.17-.07.26.03-.09.05-.17.07-.26Zm-23.52.29c.02.05.04.1.06.16-.02-.05-.04-.1-.06-.16Zm23.28.35c-.03.07-.07.15-.11.21.04-.07.07-.14.11-.21Zm-23.01.23s.05.09.07.13c-.02-.04-.05-.09-.07-.13Z" style="fill:#b5540b"/><path d="M14.39 5.14a32.442 32.442 0 0 0-4.73 8.81c-2.3 6.6-2.38 13.95-.23 20.6 2.43 7.53 7.74 14.1 14.6 18.05.66.38 1.34.73 2.03 1.06C15.33 51.58 7 47.12 3.98 41.46 1.9 37.55.84 33.04.84 28.63c0-3.98.84-11.44 3.96-15.98 2.02-2.89 5.33-5.45 9.59-7.51Z" style="fill:#a94e0b"/><path d="M78.29 24.37c.18 1.61.27 3.1.27 4.26 0 1.44-.12 2.88-.35 4.32-1.85 1.45-4.25 2.21-6.59 2-.69-.06-1.37-.2-2.06-.21-.69 0-1.41.13-1.95.56-.3.23-.53.55-.69.9-.17.34-.27.71-.34 1.09-.13.75-.13 1.52-.27 2.26-.19 1.03-.64 2-1.3 2.81-.66.8-1.54 1.43-2.52 1.79-.97.36-2.05.47-3.07.28-1.03-.18-2-.65-2.78-1.34-.79-.7-1.38-1.61-2.07-2.4-.35-.4-.73-.77-1.18-1.06-.44-.29-.95-.5-1.47-.55-.7-.07-1.4.14-2.01.48-.61.34-1.14.81-1.65 1.29-1.82 1.72-3.48 3.72-5.78 4.72-1.21.53-2.57.75-3.88.57-1.31-.17-2.58-.74-3.55-1.64-.92-.85-1.55-1.96-2.32-2.95-.39-.5-.81-.96-1.31-1.35-.5-.38-1.07-.67-1.69-.77-.93-.16-1.89.12-2.72.55-.84.44-1.58 1.03-2.35 1.57-1.82 1.28-3.91 2.32-6.13 2.36-1.02.02-2.05-.18-2.93-.67-.89-.5-1.61-1.31-1.91-2.27-.3-1-.14-2.06-.04-3.1.05-.52.08-1.04.03-1.56s-.19-1.03-.46-1.48c-.25-.42-.62-.77-1.06-.99-.43-.23-.93-.33-1.42-.3-.8.05-1.53.44-2.2.88-.67.44-1.31.94-2.05 1.25-1.23.51-2.71.41-3.87-.26-.44-.25-.84-.59-1.16-.99-.4-1.91-.61-3.86-.61-5.78 0-1.17.09-2.66.27-4.26H78.3Z" style="fill:#9b470b"/><path d="M14.39 5.14a32.442 32.442 0 0 0-4.73 8.81c-2.24 6.42-2.37 13.54-.4 20.04-.25.13-.5.27-.73.43-.67.44-1.31.94-2.05 1.25-1.23.51-2.71.41-3.87-.26-.44-.25-.84-.59-1.16-.99-.1-.48-.19-.96-.27-1.43v-.02c-.07-.45-.13-.9-.18-1.36-.02-.17-.03-.34-.04-.51-.03-.31-.06-.62-.08-.93-.03-.51-.05-1.02-.05-1.53 0-3.98.84-11.44 3.96-15.98.23-.33.48-.65.74-.96l.15-.18c.27-.32.55-.64.86-.95s0-.01.01-.01c1.98-2.03 4.64-3.86 7.82-5.4Z" style="fill:#8b3f0b"/><path d="M39.67 0c16.77 0 30.5 5.31 35.77 12.65 2.22 3.16 3.28 6.63 3.7 10.23.2 1.73.07 3.58-.59 5.18-.51 1.25-1.06 2.04-2.5 3.2-.91.73-2.03 1.17-3.18 1.43-1.14.26-2.32.36-3.5.46-.66.06-1.33.13-1.96.31-.64.19-1.25.5-1.68.99-.5.57-.74 1.32-.88 2.06s-.21 1.49-.46 2.21c-.5 1.43-1.76 2.6-3.25 3.01-1.5.42-3.19.07-4.4-.88-1-.79-1.65-1.95-2.67-2.72-.87-.66-2-1.01-3.11-.97-1.11.03-2.2.43-3.08 1.09-.78.59-1.39 1.38-1.98 2.16-.58.78-1.16 1.58-1.91 2.22-1.29 1.12-3.07 1.68-4.79 1.56a7.05 7.05 0 0 1-4.56-2.15c-.58-.61-1.04-1.32-1.54-1.99-.5-.68-1.04-1.33-1.74-1.8-.77-.52-1.71-.78-2.65-.79-.94 0-1.87.24-2.7.67-.84.45-1.57 1.07-2.29 1.68-.72.61-1.46 1.23-2.33 1.63-1.25.59-2.75.7-4.05.21-.64-.25-1.23-.64-1.7-1.15-.46-.51-.79-1.13-.94-1.79-.25-1.12.03-2.27.1-3.41.04-.57.02-1.15-.14-1.7s-.47-1.07-.93-1.41c-.55-.4-1.27-.53-1.95-.46-.68.07-1.33.31-1.95.6-.87.41-1.7.92-2.59 1.29-.89.37-1.88.59-2.84.41a3.95 3.95 0 0 1-1.91-.99c-.54-.49-.95-1.09-1.27-1.74-.67-1.37-.77-1.91-.96-2.92-.23-1.37-.31-2.81-.23-4.21.23-4.06 1.49-8.15 3.86-11.51C9.16 5.31 22.89 0 39.67 0Zm-.03 10.46c-6.76 0-12.23 2.79-12.23 6.24s5.48 6.24 12.23 6.24 12.24-2.79 12.24-6.24-5.48-6.24-12.24-6.24Z" style="fill:#2c170e"/><path d="M39.66 0c16.27 0 29.68 5 35.28 12 .05 2.16-.42 4.34-1.32 6.32-2.05 4.47-6.15 7.75-10.62 9.79-5.48 2.5-11.57 3.35-17.58 3.78-7.01.49-14.09.43-21-.83-6.33-1.15-12.71-3.43-17.23-8.02-1.53-1.56-2.82-3.36-3.64-5.39-.4-1-.68-2.06-.81-3.13.35-.64.72-1.27 1.14-1.87C9.16 5.31 22.89 0 39.66 0Zm-.03 10.46c-6.76 0-12.23 2.79-12.23 6.24s5.48 6.24 12.23 6.24 12.24-2.79 12.24-6.24-5.48-6.24-12.24-6.24Z" style="fill:#321a0e"/><path d="M5.11 18.57c2.58 5.73 10.39 10.35 21.3 12.62-11.96-1.93-20.08-6.74-21.3-12.62ZM73.74 15.68c.1.59.14 1.17.11 1.75-.39 6.4-8.88 11.77-21.82 13.79 12.65-2.73 20.88-8.62 21.71-15.54Z" class="cls-3"/><path d="M48.26 10.25c-1.22-.35-2.48-.63-3.74-.85-2.43-.41-4.93-.58-7.4-.37-2.19.18-4.34.66-6.35 1.41 2.87-1.31 6.17-1.97 9.45-1.9 2.79.06 5.56.65 8.04 1.71Z" style="fill:#866254"/><path d="M78.8 23.66c.23 1.3.07 2.67-.46 3.88a6.99 6.99 0 0 1-2 2.63c-.58.47-1.24.85-1.93 1.12.88-.64 1.66-1.41 2.31-2.29 1.16-1.55 1.89-3.42 2.09-5.34ZM64.39 37.17a4.982 4.982 0 0 1-1.24 2.95c-.7.78-1.65 1.33-2.67 1.54.75-.43 1.45-.97 2.05-1.6a9.12 9.12 0 0 0 1.86-2.89ZM45.01 40.82c-.47.87-1.15 1.62-1.98 2.17-.85.57-1.86.9-2.88.96-.62.04-1.26-.04-1.86-.21 1.28.01 2.58-.25 3.75-.77 1.12-.5 2.14-1.24 2.96-2.15ZM24.06 38.73c-.53.56-1.13 1.07-1.77 1.5-.63.43-1.3.79-2.04 1-.94.27-1.95.27-2.89 0 1.18-.1 2.34-.36 3.45-.77 1.16-.43 2.25-1.01 3.24-1.74ZM7.22 33.05c-.5.45-1.18.72-1.86.72-.88 0-1.72-.4-2.39-.97a5.395 5.395 0 0 1-1.79-3.1 5.463 5.463 0 0 0 2.21 2.63c1.13.7 2.52.96 3.83.72ZM68.07 33.12c-.71-.07-1.44.13-2.02.54-.7.5-1.17 1.31-1.25 2.17-.06-.42-.01-.86.14-1.25.15-.4.41-.75.73-1.03.33-.27.73-.46 1.14-.54.42-.07.86-.04 1.26.1ZM52.03 36.64c-.74-.07-1.49 0-2.21.18-1.14.29-2.19.9-3.01 1.74.5-.98 1.42-1.74 2.47-2.06.9-.27 1.89-.21 2.75.14ZM30.91 37.46c-.5-.3-1.05-.5-1.62-.59-1.24-.2-2.55.16-3.53.94.32-.48.76-.87 1.28-1.12.51-.25 1.09-.37 1.66-.32.84.06 1.65.46 2.21 1.09ZM13.86 31.71c-.68-.3-1.42-.42-2.16-.36-.77.07-1.52.34-2.16.78.48-.65 1.25-1.09 2.05-1.17.81-.08 1.65.2 2.26.74Z" class="cls-2"/><path d="M65.91 48.02c2.39-1.27 4.66-2.8 6.63-4.67.8-.76 1.57-1.61 1.89-2.66.16-.53.2-1.09.07-1.63-.13-.53-.45-1.03-.9-1.34-.41-.28-.93-.4-1.43-.37-.5.03-.99.2-1.42.45-.9.52-1.57 1.36-2.11 2.23-.54.88-.98 1.82-1.56 2.69-.64.96-1.46 1.83-2.45 2.44-.98.61-2.15.96-3.31.89-1.54-.09-2.94-.88-4.28-1.64-1.34-.76-2.77-1.52-4.31-1.53-.83 0-1.64.21-2.4.54-.75.33-1.45.79-2.13 1.27-1.34.96-2.62 2.07-4.15 2.7-1.95.79-4.19.72-6.2.09s-3.82-1.79-5.48-3.09c-1.08-.85-2.13-1.79-3.42-2.25-1.41-.5-3.04-.35-4.34.38a5.61 5.61 0 0 0-2.66 3.46c-.27 1.04-.23 2.19.29 3.13.5.9 1.39 1.52 2.3 2 1.68.9 3.51 1.48 5.37 1.89 4.21.93 8.57 1.04 12.88.79 2.77-.16 5.54-.46 8.28-.93 5.15-.89 10.23-2.39 14.85-4.84Z" style="fill:#c45b0b"/><path d="M42.93.9c1.34.03 2.69.13 4.02.3 4.05.53 8.01 1.7 11.8 3.23 1.84.74 3.66 1.58 5.2 2.83 1.53 1.25 2.77 2.96 3.1 4.91.27 1.59-.08 3.25-.81 4.69-.74 1.44-1.84 2.66-3.08 3.69-3.74 3.09-8.64 4.38-13.45 4.96-5.29.63-10.73.48-15.81-1.12-3.6-1.13-7.04-3.04-9.44-5.96-1-1.21-1.8-2.59-2.25-4.09-.45-1.5-.51-3.13-.08-4.63.55-1.9 1.89-3.52 3.49-4.67 1.61-1.17 3.47-1.91 5.37-2.5C34.85 1.35 38.9.8 42.93.9Zm-3.3 9.57c-6.76 0-12.23 2.79-12.23 6.24s5.48 6.24 12.23 6.24 12.24-2.79 12.24-6.24-5.48-6.24-12.24-6.24Z" style="fill:#3a1e0e"/><path d="M46.93 11.02c-2.02-1.17-4.73-1.82-7.44-1.79-2.66.03-5.29.72-7.23 1.9 2.2-.83 4.72-1.29 7.26-1.32 2.57-.02 5.16.4 7.41 1.2Z" class="cls-3"/></g></svg>